<?xml version="1.0" encoding="UTF-8"?>
<!DOCTYPE svg PUBLIC "-//W3C//DTD SVG 1.1//EN" "http://www.w3.org/Graphics/SVG/1.1/DTD/svg11.dtd">
<!-- Creator: CorelDRAW X6 -->
<svg xmlns="http://www.w3.org/2000/svg" xml:space="preserve" width="50%" height="50%" version="1.1" style="shape-rendering:geometricPrecision; text-rendering:geometricPrecision; image-rendering:optimizeQuality; fill-rule:evenodd; clip-rule:evenodd"
viewBox="0 0 500 500"
 xmlns:xlink="http://www.w3.org/1999/xlink">
 <defs>
  <style type="text/css">
   <![CDATA[
    .fil1 {fill:#434242}
   ]]>
  </style>
 </defs>
 <g id="Layer_x0020_1">
  <metadata id="CorelCorpID_0Corel-Layer"/>
  <path class="fil1" d="M303 62l0 -37c0,-3 -2,-5 -5,-5l-96 0c-3,0 -5,2 -5,5l0 37c-27,7 -52,19 -73,35l-7 -7c-2,-2 -2,-5 0,-7l2 -2c2,-2 2,-5 0,-7l-16 -17c-2,-2 -6,-2 -8,0l-43 43c-2,2 -2,6 0,8l17 16c2,2 5,2 7,0l2 -2c2,-2 5,-2 7,0l6 6c-33,37 -53,86 -53,140 0,117 95,212 212,212 117,0 212,-95 212,-212 0,-99 -67,-182 -159,-206zm-97 50l4 16c1,2 2,2 3,2 2,0 3,-2 2,-3l-4 -16c11,-3 22,-5 34,-5l0 26c0,2 2,5 5,5 3,0 5,-3 5,-5l0 -26c12,0 23,2 34,5l-4 16c-1,1 0,3 2,3 1,0 2,0 3,-2l4 -16c11,3 22,8 32,13l-13 22c-1,3 0,6 2,7 3,1 6,1 7,-2l13 -22c10,6 19,13 27,21l-12 12c-1,1 -1,3 0,4 1,1 3,1 4,0l12 -12c8,8 15,17 21,27l-22 13c-3,1 -3,4 -2,7 1,2 4,3 7,2l22 -13c6,10 10,20 13,31l-17 5c-1,0 -2,2 -1,3 0,1 1,2 3,2l17 -5c3,11 4,23 5,35l-27 0c-2,0 -5,2 -5,5 0,3 3,5 5,5l27 0c-1,12 -2,23 -5,34l-17 -5c-2,0 -3,1 -3,2 -1,1 0,3 1,3l18 5c-3,12 -8,22 -13,33l-23 -13c-3,-2 -6,-1 -7,1 -1,3 -1,6 2,7l23 13c-6,10 -13,19 -21,28l-13 -14c-1,-1 -3,-1 -4,0 -1,1 -1,3 0,4l13 13c-8,9 -18,16 -28,22l-13 -23c-1,-3 -4,-3 -7,-2 -2,1 -3,4 -2,7l14 23 0 0c-10,6 -21,10 -32,13l-5 -18c-1,-2 -2,-2 -3,-2 -2,0 -3,2 -2,3l5 19c-12,2 -23,4 -35,4l0 0 0 -27c0,-2 -2,-4 -5,-4 -3,0 -5,2 -5,4l0 27 0 0c-12,0 -23,-2 -35,-4l5 -19c1,-1 0,-3 -2,-3 -1,0 -2,0 -3,2l-5 18c-11,-3 -22,-7 -32,-13l0 0 14 -23c1,-3 0,-6 -2,-7 -3,-1 -6,0 -7,2l-13 23c-10,-6 -20,-13 -28,-22l13 -13c1,-1 1,-3 0,-4 -1,-1 -3,-1 -4,0l-13 14c-8,-9 -15,-18 -21,-28l23 -13c3,-1 3,-4 2,-7 -1,-2 -4,-3 -7,-1l-23 13c-5,-11 -10,-22 -13,-33l18 -5c1,0 2,-2 1,-3 0,-1 -1,-2 -3,-2l-17 5c-3,-11 -4,-22 -5,-34l27 0c2,0 5,-2 5,-5 0,-3 -3,-5 -5,-5l-27 0c1,-12 2,-24 5,-35l17 5c2,0 3,-1 3,-2 1,-1 0,-3 -1,-3l-17 -5c3,-11 7,-21 13,-31l22 13c3,1 6,0 7,-2 1,-3 1,-6 -2,-7l-22 -13c6,-10 13,-19 21,-27l12 12c1,1 3,1 4,0 1,-1 1,-3 0,-4l-12 -12c8,-8 17,-15 27,-21l13 22c1,3 4,3 7,2 2,-1 3,-4 2,-7l-13 -22c10,-5 21,-10 32,-13zm-1 148c-3,0 -4,-3 -4,-6 1,-3 4,-4 7,-4l25 7c0,-1 1,-1 1,-2l-40 -70c-2,-3 -1,-8 3,-10 4,-2 8,-1 10,3l40 70c1,0 2,-1 3,-1 11,0 20,9 20,20l96 26c3,1 4,3 4,6 -1,3 -4,4 -7,4l-96 -26c0,1 -1,2 -1,2l8 15c2,3 1,8 -3,10 -3,2 -8,1 -10,-3l-8 -14c-1,0 -2,0 -3,0 -11,0 -20,-9 -20,-20l0 0 -25 -7z"/>
 </g>
</svg>
